<svg width="12" height="12" viewBox="0 0 12 12" fill="none" xmlns="http://www.w3.org/2000/svg">
<path d="M6.00049 0.625366C8.96885 0.625564 11.3755 3.03196 11.3755 6.00037C11.3753 8.96862 8.96874 11.3752 6.00049 11.3754C3.03207 11.3754 0.625666 8.96875 0.625488 6.00037C0.625488 3.03184 3.03196 0.625366 6.00049 0.625366ZM9.22119 3.90369C9.00152 3.68402 8.64496 3.68402 8.42529 3.90369L5.27881 7.05017L3.79932 5.57068C3.57964 5.35102 3.22308 5.351 3.00342 5.57068C2.78404 5.79027 2.78411 6.14597 3.00342 6.3656L5.27881 8.64099L9.22119 4.69861C9.44062 4.47901 9.44055 4.12333 9.22119 3.90369Z" fill="currentColor"/>
</svg>
