<svg width="12" height="12" viewBox="0 0 12 12" fill="none" xmlns="http://www.w3.org/2000/svg">
<path fill-rule="evenodd" clip-rule="evenodd" d="M6 0.625C3.03147 0.625 0.625 3.03147 0.625 6C0.625 8.96853 3.03147 11.375 6 11.375C8.96853 11.375 11.375 8.96853 11.375 6C11.375 3.03147 8.96853 0.625 6 0.625ZM4.76541 4.23483C4.61896 4.08838 4.38153 4.08838 4.23508 4.23483C4.08863 4.38127 4.08863 4.61871 4.23508 4.76516L5.46991 5.99999L4.23508 7.23483C4.08863 7.38127 4.08863 7.61871 4.23508 7.76516C4.38153 7.9116 4.61896 7.9116 4.76541 7.76516L6.00024 6.53032L7.23508 7.76516C7.38153 7.9116 7.61896 7.9116 7.76541 7.76516C7.91186 7.61871 7.91186 7.38127 7.76541 7.23483L6.53057 5.99999L7.76541 4.76516C7.91186 4.61871 7.91186 4.38127 7.76541 4.23483C7.61896 4.08838 7.38153 4.08838 7.23508 4.23483L6.00024 5.46966L4.76541 4.23483Z" fill="currentColor"/>
</svg>
