<svg width="12" height="12" viewBox="0 0 12 12" fill="none" xmlns="http://www.w3.org/2000/svg">
<path d="M3.01992 8.8125C3.04336 8.8125 3.0668 8.81016 3.09023 8.80664L5.06133 8.46094C5.08477 8.45625 5.10703 8.4457 5.12344 8.42813L10.091 3.46055C10.1019 3.44971 10.1105 3.43683 10.1164 3.42265C10.1223 3.40847 10.1253 3.39328 10.1253 3.37793C10.1253 3.36258 10.1223 3.34738 10.1164 3.33321C10.1105 3.31903 10.1019 3.30615 10.091 3.29531L8.14336 1.34648C8.12109 1.32422 8.0918 1.3125 8.06016 1.3125C8.02852 1.3125 7.99922 1.32422 7.97695 1.34648L3.00937 6.31406C2.9918 6.33164 2.98125 6.35273 2.97656 6.37617L2.63086 8.34727C2.61946 8.41004 2.62353 8.47466 2.64273 8.53551C2.66192 8.59635 2.69566 8.65161 2.74102 8.69648C2.81836 8.77148 2.91563 8.8125 3.01992 8.8125V8.8125ZM3.80977 6.76875L8.06016 2.51953L8.91914 3.37852L4.66875 7.62773L3.62695 7.81172L3.80977 6.76875V6.76875ZM10.3125 9.79688H1.6875C1.48008 9.79688 1.3125 9.96445 1.3125 10.1719V10.5938C1.3125 10.6453 1.35469 10.6875 1.40625 10.6875H10.5938C10.6453 10.6875 10.6875 10.6453 10.6875 10.5938V10.1719C10.6875 9.96445 10.5199 9.79688 10.3125 9.79688Z" fill="currentColor"/>
</svg>
