<svg width="16" height="16" viewBox="0 0 16 16" fill="none" xmlns="http://www.w3.org/2000/svg">
<path fill-rule="evenodd" clip-rule="evenodd" d="M3.19997 1.06668C2.91707 1.06668 2.64576 1.17906 2.44572 1.3791C2.24568 1.57914 2.1333 1.85045 2.1333 2.13335V13.8667C2.1333 14.1496 2.24568 14.4209 2.44572 14.6209C2.64576 14.821 2.91707 14.9333 3.19997 14.9333H11.2C11.3414 14.9333 11.4771 14.8772 11.5771 14.7771C11.6771 14.6771 11.7333 14.5415 11.7333 14.4C11.7333 14.2586 11.6771 14.1229 11.5771 14.0229C11.4771 13.9229 11.3414 13.8667 11.2 13.8667H3.19997V2.13335H11.2C11.3414 2.13335 11.4771 2.07716 11.5771 1.97714C11.6771 1.87712 11.7333 1.74146 11.7333 1.60001C11.7333 1.45857 11.6771 1.32291 11.5771 1.22289C11.4771 1.12287 11.3414 1.06668 11.2 1.06668H3.19997ZM13.4442 5.22241C13.3441 5.12227 13.2083 5.06601 13.0666 5.06601C12.925 5.06601 12.7892 5.12227 12.689 5.22241C12.5889 5.32256 12.5326 5.45839 12.5326 5.60001C12.5326 5.74164 12.5889 5.87747 12.689 5.97761L14.1792 7.46668H6.9333C6.79185 7.46668 6.6562 7.52287 6.55618 7.62289C6.45616 7.72291 6.39997 7.85857 6.39997 8.00001C6.39997 8.14146 6.45616 8.27712 6.55618 8.37714C6.6562 8.47716 6.79185 8.53335 6.9333 8.53335H14.1792L12.689 10.0224C12.5889 10.1226 12.5326 10.2584 12.5326 10.4C12.5326 10.5416 12.5889 10.6775 12.689 10.7776C12.7892 10.8778 12.925 10.934 13.0666 10.934C13.2083 10.934 13.3441 10.8778 13.4442 10.7776L15.8442 8.37761C15.8939 8.32807 15.9333 8.26922 15.9602 8.20442C15.9871 8.13963 16.0009 8.07017 16.0009 8.00001C16.0009 7.92986 15.9871 7.8604 15.9602 7.79561C15.9333 7.73081 15.8939 7.67196 15.8442 7.62241L13.4442 5.22241V5.22241Z" fill="currentColor"/>
</svg>
