<svg width="16" height="16" viewBox="0 0 16 16" fill="none" xmlns="http://www.w3.org/2000/svg">
<path d="M7.3335 11.3333H8.66683V7.33333H7.3335V11.3333ZM8.00016 6C8.18905 6 8.3475 5.93599 8.4755 5.80799C8.6035 5.67999 8.66727 5.52177 8.66683 5.33333C8.66683 5.14444 8.60283 4.98622 8.47483 4.85866C8.34683 4.73111 8.18861 4.66711 8.00016 4.66666C7.81127 4.66666 7.65305 4.73066 7.5255 4.85866C7.39794 4.98666 7.33394 5.14488 7.3335 5.33333C7.3335 5.52222 7.3975 5.68066 7.5255 5.80866C7.6535 5.93666 7.81172 6.00044 8.00016 6ZM8.00016 14.6667C7.07794 14.6667 6.21127 14.4916 5.40016 14.1413C4.58905 13.7911 3.8835 13.3162 3.2835 12.7167C2.6835 12.1167 2.20861 11.4111 1.85883 10.6C1.50905 9.78888 1.33394 8.92222 1.3335 8C1.3335 7.07777 1.50861 6.21111 1.85883 5.4C2.20905 4.58888 2.68394 3.88333 3.2835 3.28333C3.8835 2.68333 4.58905 2.20844 5.40016 1.85866C6.21127 1.50888 7.07794 1.33377 8.00016 1.33333C8.92239 1.33333 9.78905 1.50844 10.6002 1.85866C11.4113 2.20888 12.1168 2.68377 12.7168 3.28333C13.3168 3.88333 13.7919 4.58888 14.1422 5.4C14.4924 6.21111 14.6673 7.07777 14.6668 8C14.6668 8.92222 14.4917 9.78888 14.1415 10.6C13.7913 11.4111 13.3164 12.1167 12.7168 12.7167C12.1168 13.3167 11.4113 13.7918 10.6002 14.142C9.78905 14.4922 8.92239 14.6671 8.00016 14.6667Z" fill="currentColor"/>
</svg>
