<svg width="16" height="16" viewBox="0 0 16 16" fill="none" xmlns="http://www.w3.org/2000/svg">
<path d="M9.53174 7.86539C9.12541 8.27172 8.57431 8.49999 7.99968 8.49999C7.42504 8.49999 6.87394 8.27172 6.46761 7.86539C6.06128 7.45906 5.83301 6.90796 5.83301 6.33332C5.83301 5.75869 6.06128 5.20759 6.46761 4.80126C6.87394 4.39493 7.42504 4.16666 7.99968 4.16666C8.57431 4.16666 9.12541 4.39493 9.53174 4.80126C9.93807 5.20759 10.1663 5.75869 10.1663 6.33332C10.1663 6.90796 9.93807 7.45906 9.53174 7.86539Z" stroke="currentColor"/>
<path d="M4 12.5C4 12.1667 4.1 11.4 4.5 11C4.9 10.6 7 10.5 8 10.5" stroke="currentColor"/>
<path d="M12 12.5C12 12.1667 11.9 11.4 11.5 11C11.1 10.6 9 10.5 8 10.5" stroke="currentColor"/>
<path d="M14.1668 8.00001C14.1668 11.4059 11.406 14.1667 8.00016 14.1667C4.59431 14.1667 1.8335 11.4059 1.8335 8.00001C1.8335 4.59415 4.59431 1.83334 8.00016 1.83334C11.406 1.83334 14.1668 4.59415 14.1668 8.00001Z" stroke="currentColor"/>
</svg>
