<svg width="16" height="16" viewBox="0 0 16 16" fill="none" xmlns="http://www.w3.org/2000/svg">
<path d="M7.2499 11.25C7.2499 11.4489 7.32892 11.6397 7.46957 11.7803C7.61023 11.921 7.80099 12 7.9999 12C8.19882 12 8.38958 11.921 8.53023 11.7803C8.67089 11.6397 8.7499 11.4489 8.7499 11.25C8.7499 11.0511 8.67089 10.8603 8.53023 10.7197C8.38958 10.579 8.19882 10.5 7.9999 10.5C7.80099 10.5 7.61023 10.579 7.46957 10.7197C7.32892 10.8603 7.2499 11.0511 7.2499 11.25V11.25ZM7.4999 6.5V9.375C7.4999 9.44375 7.55615 9.5 7.6249 9.5H8.3749C8.44365 9.5 8.4999 9.44375 8.4999 9.375V6.5C8.4999 6.43125 8.44365 6.375 8.3749 6.375H7.6249C7.55615 6.375 7.4999 6.43125 7.4999 6.5ZM14.9327 13.375L8.43272 2.125C8.33584 1.95781 8.16865 1.875 7.9999 1.875C7.83115 1.875 7.6624 1.95781 7.56709 2.125L1.0671 13.375C0.874908 13.7094 1.11553 14.125 1.49991 14.125H14.4999C14.8843 14.125 15.1249 13.7094 14.9327 13.375ZM2.69053 12.9391L7.9999 3.74844L13.3093 12.9391H2.69053V12.9391Z" fill="currentColor"/>
</svg>
